<svg xmlns="http://www.w3.org/2000/svg" viewBox="0 0 83.79 6.61"><defs><style>.cls-1{fill:#fff;}</style></defs><g id="Camada_2" data-name="Camada 2"><g id="Layer_3" data-name="Layer 3"><line class="cls-1" y1="3.31" x2="83.75" y2="3.31"/><path class="cls-1" d="M83.75,3.08c.12-.35,0-.11-.2-.07Z"/><path class="cls-1" d="M83.55,3,83.41,3A.13.13,0,0,0,83.55,3Z"/><path class="cls-1" d="M82.27,2.76c.29-.28.65.11.83-.32A.49.49,0,0,0,82.27,2.76Z"/><polygon class="cls-1" points="82.71 3.04 82.75 2.81 82.49 3.17 82.71 3.04"/><polygon class="cls-1" points="82.9 3.25 82.86 3.17 82.45 3.41 82.9 3.25"/><path class="cls-1" d="M81.27,2.59l.29-.06c.28.32-.18.43,0,.64.37,0,.12-.66.59-.56,0-.3-.74,0-.67-.47C81.1,2,81.47,2.42,81.27,2.59Z"/><path class="cls-1" d="M63.44,5.14s0,0,0,0S63.43,5.19,63.44,5.14Z"/><path class="cls-1" d="M58.55,5.48a.54.54,0,0,0-.2-.1.57.57,0,0,0,.08.13Z"/><path class="cls-1" d="M66.5,4.26a.77.77,0,0,0,.19.11A.22.22,0,0,0,66.5,4.26Z"/><path class="cls-1" d="M35.39,2.55a.46.46,0,0,0,0-.14h0l-.06.13Z"/><path class="cls-1" d="M53.09,6.21a.71.71,0,0,0-.22,0C53,6.27,53.06,6.25,53.09,6.21Z"/><path class="cls-1" d="M68.26,4.22h-.08l.09,0v0Z"/><path class="cls-1" d="M60.15,6.12A.38.38,0,0,0,60,6.06.43.43,0,0,0,60.15,6.12Z"/><path class="cls-1" d="M76.74,2.06a.19.19,0,0,0-.22,0C76.58,2.18,76.65,2.19,76.74,2.06Z"/><path class="cls-1" d="M75,2.11h0C75,2.05,75,2.07,75,2.11Z"/><path class="cls-1" d="M73.88,2.07h0S73.88,2,73.88,2.07Z"/><path class="cls-1" d="M76.52,2.11c-.14-.19-.18-.79-.37-.13l0,.09c-.12-.15-.28.1-.41.13a.75.75,0,0,0,0,.16,1.08,1.08,0,0,1,.28.06C76.27,2.56,76.37,2.25,76.52,2.11Z"/><path class="cls-1" d="M63.46,5c0,.12.13.06,0,0Z"/><path class="cls-1" d="M65,4.53l-.15,0S64.91,4.56,65,4.53Z"/><path class="cls-1" d="M70.64,4.7l0,0C70.6,4.74,70.62,4.73,70.64,4.7Z"/><path class="cls-1" d="M64.68,4.5h.13A.12.12,0,0,0,64.68,4.5Z"/><path class="cls-1" d="M68.93,4.34h0Z"/><path class="cls-1" d="M12.06.45c.12-.06.19.11.29.17.25-.44-.5,0-.14-.4a.42.42,0,0,0-.27.12l.15.41C12.3.59,12,.61,12.06.45Z"/><path class="cls-1" d="M34,1.7l.05,0c0-.19,0-.24-.19-.34-.16.28.09.71-.19,1,0,0,.13,0,.21,0A.85.85,0,0,1,34,1.7Z"/><path class="cls-1" d="M33.85,2.44v0a.3.3,0,0,0,0,.1.16.16,0,0,1,.11,0A.3.3,0,0,0,33.85,2.44Z"/><path class="cls-1" d="M15.85.63l.13,0C15.92.59,15.88.59,15.85.63Z"/><path class="cls-1" d="M53.44,1a.93.93,0,0,0,.15-.13A.22.22,0,0,0,53.44,1Z"/><path class="cls-1" d="M36.67,2.1l.13.07.09,0Z"/><path class="cls-1" d="M27.68,6.05c.1-.46-.07,0-.26-.23l-.18.25A.72.72,0,0,0,27.68,6.05Z"/><path class="cls-1" d="M11.92.31v0h0Z"/><path class="cls-1" d="M22.4,6.16l-.08-.07A.19.19,0,0,0,22.4,6.16Z"/><path class="cls-1" d="M34.91,2.64l.68,0-.2-.12C35.29,2.78,35,2.36,34.91,2.64Z"/><path class="cls-1" d="M30.58,6.33l.06.28c.68-.6,1.45.26,2-.58.82,1,.54-.9,1.3,0l0-.15c2.48.17,5.12.69,7.44.21v.2c3.74.34,7.38-.07,11.09.08.35-.18.14-.62.44-.84.13,0,.42,0,.42.23-.25.14-.11.36-.19.45.41,0,.95.26,1.32,0l-.31-.32c.15-.13.37,0,.5,0-.05.16.14.5,0,.58.78-.79.61.34,1.27,0,.13-.67,1-1.22,1.5-1.7l.29.17c-.38,0,0,.49-.47.46.4.19.76-.1,1.13,0-.07-.17-.05-.39.1-.46.23.09.25.43.51.46l-.26.21c.18.25.33-.08.49-.12.05.28.44.33.37.64.35-.38.48-.16.85-.41-.39-.29.11-.37.06-.6L60,5.21c.62.19-.21,0-.16.53-.29-.22.4-.79-.09-.71.59-.25.71,0,1.32-.43-.37.09.07-.31-.13-.46.46,0,.12.17.26.48.25,0,.34.26.57-.1.41.15-.06.36.15.56-.15.33-1.14-.41-1,.64-.22,0-.48.42-.78.4.27.13.65.48,1,.24V5.77c.25,0,.31-.42.49-.37a.26.26,0,0,0,.28.37c-.06-.08-.14-.06-.12-.16.37-.05.42-.45.87-.57-.37-.15-.44-.33-.79-.58.1-.42.25-.07.45-.12,0,.06-.07.07,0,.15l.22-.2c.46.18-.06.61.32.81.26.35.36-.2.56,0a.76.76,0,0,1,0-.11l.1,0s0,0,0,0c.25-.06.51,0,.57-.33,0,.14.22,0,.3-.14s.45-.49.66,0h0c.3.06.54.22.47.38l.49.13,0,.4c.44-.11.4-.34.7-.76a1.07,1.07,0,0,0,1.09-.1.39.39,0,0,0,.18,0l-.19-.16c.35,0,.3-.19.53-.19,0,0-.05-.07.08,0l.13,0s-.06,0-.12,0l0,.14c.27.43.42-.25.72-.1,0,0-.08,0-.11,0,.17.11.41.69.48.34,0,0,.09,0,.15-.12l.12.06a.34.34,0,0,1-.12-.06c.08-.11.15-.26.16-.17l.43.07c.08.06.19,0,.27,0l.08.17c.15,0,.15.07.14.12.53.58.83-.3,1.41.21.11-.28-.13-.41-.15-.56s.43-.41.59-.56c.26.39,1.06.73.93,1.29.48,0-.15-.35.09-.54l0,0a.84.84,0,0,1-.38-.47c0-.3.38-.39.51-.3l-.09.43c.44-.15.35-.8.63-1.23.35.17.15.56.22.94l.37-.1v.32c.24-.09.3-.39.63-.26-.24.3.5.3.17.71.18.11.23-.52.33-.09.13-.34-.17-.17-.26-.28-.08-.49.41-.23.63-.36,0,.25-.15.3.11.47,0-.19.22-.34.37-.11,0-.32.29-.06.44,0a.49.49,0,0,1-.3-.58.54.54,0,0,1,.54-.15l-.2-.15c.26-.47.42.34.77.19-.14.19-.24.19-.36.43a5.13,5.13,0,0,1,.73-.54l.3.47c0-.23.33,0,.33-.3.37.22-.29.39-.33.63.46.21.37-.54.81-.05l-.14.3c.14,0,.44-.15.46,0,0-.11-.07-.06-.17-.06.09-.65.69-.45.63-1.12l-.2,0c.31-.13.53-.58.77-.35s-.13.45-.24.62c.3,0,.24-.73.59-.66a.36.36,0,0,1,0-.52c-.2,0-.62-.17-.55.11l.08.07c0,.17-.13.23-.19.32-.28,0-.13-.3-.18-.43-.47-.11,0,.66-.47.64l0-.13c-.2.18-.52.2-.57.61-.19-.43-.48.17-.69-.09,0-.94.72.07,1-.45-.22-.19.13-.45.22-.67l-.7.41c0-.13-.26-.6-.39-.25l.06,0c-.28.11-.2.49-.44.36,0-.08,0-.23,0-.3-.22-.08-.18.22-.33.3-.22-.08.11-.38-.08-.49-.25.37-.4-.08-.63-.06.1.53-.88.73-.4,1.2l-.54.37c-.16-.28.37-.75.22-1.21l.43,0c-.07-.66-.89.44-1.17-.3-.23,0-.17.06-.61-.27l.08.59A.82.82,0,0,1,75,2.11a.66.66,0,0,1-.37,0,.3.3,0,0,1,.16-.2c-.17-.33-.22-.2-.28,0s-.23.13-.37.13l.13-.23c-.08.05-.19.12-.2.23a.24.24,0,0,0-.16.05,1.25,1.25,0,0,0,.33.6c-.52-.23-.93-.1-1.37-.59,0-.18.2-.39.14-.41-.22-.09-.46.21-.44.47l-.12,0c0-.15-.09-.31-.2-.34a.19.19,0,0,0-.14-.12c-.07.48-.5.24-.59.45a.58.58,0,0,0,.35,0c-.18.32-.34.68-.48.43.33-.31-.35-.5.15-.63-.35-.6-.19.43-.56.22L70.73,2c0-.34.39-.17.33-.3l-.16.05c.16-.26.79-.09,1.18-.48L71.3,1c-1,.41-2.2-.06-3,.69h0a1.09,1.09,0,0,0,0,.23l0-.09-.17.26c-.18-.32-.53-.38-.83-.64.19.22.19.22.2.47s-.06.49-.34.37c0-.25.17-.24,0-.44a.21.21,0,0,1-.11.33c-.15-.16-.41-.19-.42-.44.08-.07.13,0,.18.05s-.29-.22-.08-.42l-.28.07c-.16-.2.11-.32.05-.45-.47.17-.71.73-1.14.89a3.82,3.82,0,0,0,0-.51c-.33-.17-.7.59-1.07.63.05-.16.19-.09.3-.17a10.91,10.91,0,0,1-3.13-.74l-.28.56-.28-.37a5.94,5.94,0,0,0-3,.17c-.34,0-.2-.39-.36-.55-.73-.06-.91.57-1.61.7.1-.17.26-.66,0-.68,0,.16-.09.42-.28.32l.1-.18c-.17-.25-.34,0-.7-.12a2.46,2.46,0,0,0-1.75,1c-.56-.06,0-.6-.05-.72.39.2.27-.1.36-.3-.21.16-.46.26-.57-.14a.86.86,0,0,0-.71.27c.14-.13.27.08.13.27-.24-.14-.84,0-.81-.49-1.37.1-2.92,0-4.39,0-.25.26.19.1,0,.29-.36.33-.28-.18-.57.09L46.69,1c-.43,0-.89.46-1.31.71.07-.31-.34-.25,0-.44-.21.05-.46-1.34-.61-1L45,1.52c0,.13-.3.05-.27.14-.18-.26-.4-.56-.52-.56-.06-.33.25-.26.42-.25,0-.55-.58-.35-.33-.85-.36.09,0,.28-.16.48L43.83.37l.24.18c-.26.16-.35.58-.71.27L43,1.36c0-.43-.27-.08-.46-.18L42.66.9a.55.55,0,0,1-.51-.22c.15-.38.23.1.29-.26L42.17.29c0,.24-.18.44,0,.58-.26.46-.4.84-1,.8-.29-.42.32-.37.2-.78-.67-.18-.82,1.08-1.21,1s-.46.22-1,.24c.16-.28-.35-.3-.44-.57l.2-.3c-.16.09-.3,0-.26-.23,0,.39-.65.36-1,.55l.07.32c-.28.11-.65.32-.94.24-.43.1-.33.39-.66.75a1.45,1.45,0,0,1-.1-1c.12.17.31.07.5.18.54-.29,1-1,1.5-.82.23-.8-.37.09-.63-.19A.08.08,0,0,1,37.46,1a.08.08,0,0,1-.07,0A.81.81,0,0,0,38,.36c-.32.08-.23.79-.63.45C37,1,36.78.41,36.6.35c-.2.3-.21.94-.7.81l.22-.44c-.56,0-.26.65-.77.63.18,0-.18.44.16.45A.68.68,0,0,1,34.7,2c-.08.06,0,.15,0,.3.31.31.48-.3.74.14l.21-.48a.51.51,0,0,1,.14.75c.08,0,.15-.08.21,0,.05.72-.34-.26-.44.36l.2-.06c.09.47-.47.42-.73.38-.3-.22-.57-.3-.59-.64l.4-.14c-.21-.28-.51.16-.74.14a.17.17,0,0,0-.06-.1.29.29,0,0,1,0,.09.26.26,0,0,1-.13-.14c-.2,0-.5.19-.69.08l0,.31,0-.17c.19,0,.44.19.3.42-.42.21-.5-.37-.6-.64.09-.46.4,0,.62-.15-.13-.46-.43-.05-.86-.36.17-.5.5,0,.6-.45-.35-.09-.44.27-.81.14.05-.23.41-.26.38-.56L32.66,1c.57,0-.1-.63.35-.75-.22-.21-.3.41-.6.09.08.22.32.62,0,.82l-.33-.15C32,.8,32.46.51,32.25.3l-.34.18c0,.15.17.22.07.43-.2-.16-.32.58-.56.81-.18,0-.33-.05-.39-.22-.47.44-1.06.43-1.49.85.29-.3,0-.52-.18-.74.33-.07.33-.54.31-.84-.2,0-.34.53-.23.69-.35-.19-.24.33-.54,0-.2-.16.1-.46,0-.64-.37,0-.1.57-.5.46,0-.06.05-.08,0-.17-.22-.1-.45.12-.5.36-.23-.62-.65.06-.6-.53-.53.16.08.32,0,.53s-.61.05-.73-.05c.13,0,.25-.17.37-.08L26.85.93c-.65-.29-.41.95-1,.59.32-.22.1-.32.26-.61-.09.1-.59,0-.29.3A1.84,1.84,0,0,1,25.22,1c-.21.16-.44.27-.56.54a1.24,1.24,0,0,1-.74-.52c-.7.31-1.34-.21-2.08.11l.06,0c-.57-.08.25.55-.34.54.08-.51-.36-.35-.55-.62-.73-.26-1.26.37-1.92,0,0-.11,0-.23.17-.25A5,5,0,0,0,17.88.81l0-.06c-.74-.42-1.41.08-2.17.2.06-.06.07-.25.12-.32-.38-.12-1-.19-1.27.27-.46-.5-.3.16-.89-.33,0-.09.06-.08.1-.1A2.06,2.06,0,0,0,13,.29c-.65.33-.81,1-1.56.78,0-.69.46-.17.48-.72-.15.12-.28.27-.48.1.12-.27,0-.17.11-.42-.16-.18-.64.72-.64.65,0,.14.05.21.2.19-.18.43-.74,0-1.1.21.12,0,.49.15.35.47-.49-.14-.65.52-1,.8-.45-.32.33-.58.24-1.07C9.54,1.1,9.36.72,9.55.53c-.41-.11-.7.31-1.06.41V.81c-.5,0-1,.65-1.46.38l.22.15c-.08.09-.33,0-.47.33,0-.23-.31-.44-.18-.63-.22.74-1.14.45-1.39,1.14-.14-.18,0-.48,0-.65.32.07.43.21.59-.08-.26,0-.46-.18-.41-.34-.27.45-.9.63-1,1.09C4.19,2,4,1.84,4.07,1.47c-.81.23.4,1.16-.51,1.16-.42-.37.4-.5-.17-.62L3.49,2c-.41-1-.29.69-.76.66-.06-.53.33-.38,0-.76-.43.13-.61.92-1,.75l.07-.22c-.27,0-.81-.07-1.08,0,0-.1,0-.09.08-.12C.24,2,.53,2.5.12,2.14L0,2.39c.21.19.61.45.88.14-.27.31.41.68.28,1.13l.05-.18A4.82,4.82,0,0,0,3.66,4.65c.55-.54.94.22,1.53-.16.1-.62.11-.12.62-.25-.27.08,0,.48.14.56a.73.73,0,0,1,.34-.28c.1.22.74.72,1,.29.31.2-.07.2-.14.33.12.32.25-.25.35,0a.19.19,0,0,1,0,.1,5,5,0,0,1,1.24.21c0-.61.49-.23.71-.45-.07.2.27.23.41.35l.27-.46c.26-.38.36.27.7.07l-.08-.11c.24-.19.89.18,1.14.51,2.27-1.19,3.52.67,5.92.34.16-.18-.11-.3,0-.58a1.58,1.58,0,0,1,.52,0c-.19-.16-.16,0-.14-.13l-.34.17s0-.06,0-.15c-.11.06-.25.18-.4.15.22-.16.27-.61.56-.44,0,.06-.06.08-.13.12.23,0,.25-.18.43-.06s.16,0,.19.16l.68.24c.33-.54.75,0,.86,0-.07.41-.45.13-.62.52l.25.3V5.62l.35.09,0,.06c0-.13.09-.25.17-.14s.05.13,0,.15l.25-.18c-.14.33.22.1.19.49.81.19,1-.52,1.74,0-.12-.18.23-.61.44-.54s.16.19.08.33l.29-.19c.36.6.71.21,1.24.42l0,.17A.71.71,0,0,1,25,6L25,6.32c.36.23.27-.72.67-.5,0-.36-.25-.55-.29-.9.09.37.52.43.42.16.39-.15.27,0,.31.1L26.33,5c.28,0,.09.48,0,.69.26-.4.55-.12.84-.06L27,5.76l.39.06a.76.76,0,0,1,.93-.15l-.23.48c.23.25.12-.17.18-.25.36-.24.44.09.63.36C29.51,5.76,30.09,7.05,30.58,6.33ZM70.5,4.47l-.06-.07C70.56,4.32,70.63,4.24,70.5,4.47Zm-3.18-.13c.38-.19.26,0,.29.17-.38-.13-.59,0-.92-.14a1.42,1.42,0,0,1,.08.31.41.41,0,0,1-.31-.38C66.62,3.82,67.48,4.62,67.32,4.34ZM74.48,2l0,.11h0Zm-1.9.43a.31.31,0,0,0-.13-.2C72.49,2.32,72.52,2.42,72.58,2.39Zm-3.77-.6c-.09-.2-.29-.14-.43-.09A1.34,1.34,0,0,0,68.81,1.79ZM45,2c.12-.08.33-.28.13-.42-.09.17-.27-.13-.35.13l0,0A1.62,1.62,0,0,0,45,2ZM33.83,3.65a1.67,1.67,0,0,0,.05-.57l0,0c0-.07,0-.12,0-.17s-.19-.08-.25,0C33.6,3.55,33.4,3.65,33.83,3.65Z"/><path class="cls-1" d="M37.56,1h0Z"/><path class="cls-1" d="M33.65,2.91s.09.1.23.17A.29.29,0,0,0,33.65,2.91Z"/><path class="cls-1" d="M80.64,4.14l-.11.06.22.2c.37-.22.39-.5.48-.82-.33.3-.53.15-1,.24Z"/><path class="cls-1" d="M80.45,2c0-.08-.12-.3-.18-.32l-.06.19Z"/><path class="cls-1" d="M76.07,1.05l.35.17C76.53,1.05,76.13.75,76.07,1.05Z"/><path class="cls-1" d="M77.63,4.45l.19-.22c-.17-.17-.39-.15-.43.09C77.61,4.19,77.45,4.45,77.63,4.45Z"/><path class="cls-1" d="M75.13,1c-.11.39-.35-.17-.42.19C74.8,1.1,75.11,1.4,75.13,1Z"/><path class="cls-1" d="M75.38,4.69c.11.36.29,0,.51.12C75.71,4.81,75.45,4.43,75.38,4.69Z"/><path class="cls-1" d="M73.25,2.11c0-.28.16-.26.33-.2-.06.09-.09.22-.17.26a3,3,0,0,1,.52-.3c-.22-.19-.56-.32-.52-.66C73.25,1.47,73,1.85,73.25,2.11Z"/><path class="cls-1" d="M74.84,4.73c.19.11.3.36.52.34,0-.19-.11-.47-.37-.43l.09-.32C74.84,4.09,75.17,4.75,74.84,4.73Z"/><path class="cls-1" d="M72.23,1.36l.11.15c.26-.26.59-.13.74-.54A1.33,1.33,0,0,0,72.23,1.36Z"/><path class="cls-1" d="M73.93,4.13l0,.45c.26.06,0-.15.07-.26.08.07.19.11.24,0C73.92,4.41,74.19,4,73.93,4.13Z"/><path class="cls-1" d="M73.08,4.63l-.33.19.26.49C73.4,5.14,73,5,73.08,4.63Z"/><path class="cls-1" d="M72.68,4.33l0-.09-.5.67A2.12,2.12,0,0,0,72.68,4.33Z"/><path class="cls-1" d="M66.65,1.4c-.06.19.23.43.11.22C66.82,1.46,66.43,1.21,66.65,1.4Z"/><path class="cls-1" d="M67.84,5c-.14-.15-.61.13-.81.26C67.27,5.18,67.87,5.27,67.84,5Z"/><path class="cls-1" d="M67,5.32,67,5.27A.12.12,0,0,0,67,5.32Z"/><path class="cls-1" d="M58.4,6.32s0,0-.06,0Z"/><path class="cls-1" d="M58.6,6.2a.37.37,0,0,0,.46-.26,2.3,2.3,0,0,0-.66.38C58.5,6.29,58.61,6.44,58.6,6.2Z"/><path class="cls-1" d="M56.64,6.1c.1-.12.24-.06.21-.24S56.57,6,56.64,6.1Z"/><path class="cls-1" d="M43.42.47c-.18-.1-.3,0-.24.26C43.39.72,43.27.55,43.42.47Z"/><polygon class="cls-1" points="42.93 0.78 42.91 0.64 42.78 0.43 42.93 0.78"/><path class="cls-1" d="M41.63.37a.32.32,0,0,1,.08-.12C41.64.29,41.57.33,41.63.37Z"/><path class="cls-1" d="M41.75.23l0,0Z"/><path class="cls-1" d="M41.83.32l0-.15-.1.06S41.82.24,41.83.32Z"/><path class="cls-1" d="M41.24.32l.25.43c.26-.21-.29-.22,0-.68Z"/><path class="cls-1" d="M40.38.44c-.24-.14-.58.54-.72,0-.67.27.16.85-.61,1,.73.26.37-1,1-.7C39.75.5,40.27.56,40.38.44Z"/><path class="cls-1" d="M40.49,1.29c0-.25-.26-.27-.35-.1C40.22,1.22,40.37,1.57,40.49,1.29Z"/><polygon class="cls-1" points="39.06 0.67 38.86 0.47 38.81 0.64 39.06 0.67"/><path class="cls-1" d="M38.29.57l.2-.3C38.42.39,38.12.37,38.29.57Z"/><path class="cls-1" d="M37.2.2c-.18-.1-.35.58,0,.43l-.09,0C37.18.5,37,.26,37.2.2Z"/><path class="cls-1" d="M34.7,1.27c.13,0,.28-.07.25-.21l-.35.14Z"/><path class="cls-1" d="M34.75,2.92c.12.42.33,0,.57.11C35.05,3,35.08,2.89,34.75,2.92Z"/><path class="cls-1" d="M34.29.68c.1-.17.25-.06.33,0C34.58.41,34.34.47,34.29.68Z"/><path class="cls-1" d="M33.73.82c-.12-.16,0-.23-.07-.34A.42.42,0,0,0,33,.54a1.51,1.51,0,0,1,.06.87c.39-.15.59-.92.79-.33l.33-.72C33.87.25,34,.87,33.73.82Z"/><path class="cls-1" d="M34.53,2.19,34.32,2c0,.24-.12.28-.24.35C34.14,2.83,34.41,2.23,34.53,2.19Z"/><polygon class="cls-1" points="31.52 1.14 31.07 1.26 31.22 1.29 31.52 1.14"/><polygon class="cls-1" points="31.24 0.97 31.22 0.82 30.88 1.1 31.24 0.97"/><polygon class="cls-1" points="30.76 0.79 30.82 0.82 31.08 0.68 30.76 0.79"/><path class="cls-1" d="M29.82.69l.09.22c.11-.06.34.19.32-.11A.27.27,0,0,1,29.82.69Z"/><path class="cls-1" d="M26.71,6.34a.45.45,0,0,0,0-.41l-.13.38S26.68,6.25,26.71,6.34Z"/><path class="cls-1" d="M26.16,5.72l-.33.43c.38.07.44-.27.77-.34-.14-.13-.34.18-.52.06Z"/><path class="cls-1" d="M19.46,5.39c0-.27-.05-.24.2-.42a2.46,2.46,0,0,1-1,.16c.07.17-.23.48-.08.4L19,5.36l-.07.19C19.24,5.77,19.13,5.24,19.46,5.39Z"/><path class="cls-1" d="M2,2.45a.52.52,0,0,0-.07-.38C1.62,2.22,2,2.42,2,2.45Z"/></g></g></svg>