<svg xmlns="http://www.w3.org/2000/svg" viewBox="0 0 83.78 3.24"><defs><style>.cls-1{fill:#fff;}</style></defs><g id="Camada_2" data-name="Camada 2"><g id="Layer_3" data-name="Layer 3"><line class="cls-1" x1="0.01" y1="1.62" x2="83.76" y2="1.62"/><path class="cls-1" d="M83.76,2.28c0-.08,0-.28-.1-.24l-.09.33Z"/><path class="cls-1" d="M82.94,1.67a.79.79,0,0,0-.21.75c.14-.32.17-.19.32-.57.13,0,.22.11.2.23,0-.08.19.07.25-.13-.16-.26-.36-.27-.57-.06C82.89,1.82,82.93,1.73,82.94,1.67Z"/><path class="cls-1" d="M71.07,1.15l.07,0Z"/><path class="cls-1" d="M63.71,1s.08,0,.08-.07S63.69.94,63.71,1Z"/><path class="cls-1" d="M62.45.61l.07,0S62.47.58,62.45.61Z"/><path class="cls-1" d="M71.07,1.15l-.2-.1C70.85,1.16,71,1.13,71.07,1.15Z"/><path class="cls-1" d="M81.3,2.47a.24.24,0,0,0,.11-.09l-.1,0A.11.11,0,0,1,81.3,2.47Z"/><path class="cls-1" d="M74.31.89h.06s0-.09,0-.14Z"/><path class="cls-1" d="M76.8.83c-.06,0-.08.27-.1.4a.29.29,0,0,1,.12-.2A.83.83,0,0,0,76.8.83Z"/><path class="cls-1" d="M80.75,1.33l.07,0Z"/><path class="cls-1" d="M72.53.82l0-.1A.17.17,0,0,0,72.53.82Z"/><path class="cls-1" d="M2.9,2.94v0S2.88,2.94,2.9,2.94Z"/><path class="cls-1" d="M0,1.55l0,0a.86.86,0,0,0,0-.16Z"/><path class="cls-1" d="M60.15.25h0C60.22.22,60.19.23,60.15.25Z"/><path class="cls-1" d="M39,.45c.24.26-.39.33,0,.61C39,1,39.34.62,39,.45Z"/><path class="cls-1" d="M81.24,2.43h0Z"/><path class="cls-1" d="M39,1.06h0l0,0Z"/><path class="cls-1" d="M54.85.42a.45.45,0,0,0,.06.12S54.89.48,54.85.42Z"/><path class="cls-1" d="M58.8.82l-.1,0Z"/><path class="cls-1" d="M52.8.81s-.07-.06-.14,0l0,0A.08.08,0,0,1,52.8.81Z"/><path class="cls-1" d="M50.67.81s0,0,0,.06h.07Z"/><path class="cls-1" d="M9.38,2.8a.77.77,0,0,1-.1-.25C9.31,2.75,9,2.82,9.38,2.8Z"/><path class="cls-1" d="M81.3,2.31q0,.1-.06.12h.07A.13.13,0,0,0,81.3,2.31Z"/><path class="cls-1" d="M52.72,3l-.34,0A1.18,1.18,0,0,0,52.72,3Z"/><path class="cls-1" d="M24.68,2.76l-.08,0A.09.09,0,0,0,24.68,2.76Z"/><path class="cls-1" d="M51.37,3a.43.43,0,0,0-.19-.19.43.43,0,0,0,0,.07Z"/><path class="cls-1" d="M9.28,2.55Z"/><path class="cls-1" d="M7.05,3.21c.32,0,.15-.36.22-.57.38-.1.18.27.31.46.24-.1.42-.44.6-.42,0,.06.05.08,0,.16.25-.3.76,0,1.05-.39l0,.1a1.62,1.62,0,0,1,0-.51c.15,0,.27-.23.33,0-.09,0-.1.09-.14.16l.15-.1c.14.35-.21.12-.21.38.3-.12.65-.4.87-.31,0,.34-.53.12-.23.42l-.35-.13c.27.54-.21,0,0,.54.46.09.51-.18,1-.08.11-.19,0-.28.07-.47.66-.34.52.86,1,.41.12-.23.17-.66.51-.43l-.11.38c.44,0,.25-.55.72-.29-.08.15-.35.12-.28.17.3.3.21-.22.44-.22l.05.34c.48,0,1-.3,1.53-.36,0,.1-.12.21,0,.31A3.84,3.84,0,0,1,16.65,3l.25-.3a.13.13,0,0,1,0,.19c.25.11,0-.18.13-.3s.19.17.1.26c.44-.25,1.26-.54,1.72-.22l-.09.08c.36.12.41-.6.74-.33l-.06.06c.79.12,1.65-.15,2.25.3.12-.42.78.19.83-.4.45.29.32.39,1,.59.17,0,.25-.37.46-.43v.31l.29-.32.15.36.19-.07a.26.26,0,0,1-.15-.23.65.65,0,0,1,.75.37l.72-.26c0,.12-.13.17-.23.25.39-.32.07.32.42,0,0-.07,0-.18,0-.24a1,1,0,0,0,.87.11L27,3c.53,0,1.12-.1,1.73-.1-.22-.1-.17-.47,0-.5l.07.32c.11-.2-.19-.12,0-.37.22,0,.15.37,0,.48l.27-.11c0,.09-.05.15-.06.27.11-.2.47.33.63,0l0,.09c.6,0,.87-.11,1.36-.12,0-.28.2-.22.35-.45a4.07,4.07,0,0,0,1.19.29c.3-.14.09-.24.22-.41,0,.26.46.23.24.42a4.31,4.31,0,0,0,1.32-.26c-.07-.11-.15-.15-.11-.24s.27.11.25.23l0,0c.74-.39,1.71.75,2.29.21l0,0,.61-.28c.28,0-.17.19,0,.35.66-.43,1,.06,1.58-.22.42.75,1.49-.06,2.06.43l0-.18c.15-.18.18.1.29.14,0-.14-.16-.16-.07-.26a13.3,13.3,0,0,1,3.83.43c.47,0,.27-.93.85-.5l-.17.33c.94-.4,1.92,0,2.84-.32,0,.07-.06.17-.14.17.19.24.71,0,.72-.18.14,0,0,.17.12.27s.49-.3.59-.06c0,0-.06.07-.09.09.13-.11.59,0,.47-.24.34.13.66-.13.93,0,.18-.31.59.15.65-.29,0,.45.6.36.82.15-.07.14.19.14.11.33.24,0,.47-.09.43-.32.46.54.92-.44,1.18.26a13.16,13.16,0,0,1,2.08-.52c0,.45-.73,0-.7.52.63-.18,1-.57,1.62-.46.16.06-.09.19-.15.27.63-.19,1.22,0,1.78-.21,0,.05-.06.09-.12.13.11,0,.26.06.24-.14l-.1,0c-.18-.29.44-.62.46-.77-.19.58.55.14.25.89a.3.3,0,0,0,.15-.28c.11,0,.14.12,0,.28.4-.11.26-.33.61-.33,0,.1-.07.14-.11.26.19-.2.37-.39.67-.31,0,.06,0,.14-.07.14.52,0,.88-.51,1.45-.33-.16.43.2.14.23.52L63,2.57l-.13-.18c.27,0,.51-.27.74-.15l-.2.16.5-.08-.28-.14c.27-.19,0-.47.33-.37-.08,0,.27,0,.41.23h0c.13-.12.27-.24.46-.15s0,.41,0,.49c.13-.31.63-.09.79-.42a.54.54,0,0,0,0,.32L65.69,2c.13.08.14.12.12.28.38.05-.11-.47.33-.27,0,0,0,.06-.09.1.45.1.86-.16,1.27,0,.12.38-.36.09-.22.41.59-.07,1.23-.45,1.8-.36l-.11,0c.08-.53.43.26.72,0-.07,0-.09.29-.08.23a3.29,3.29,0,0,0,1.4-.29l-.07.13a4.06,4.06,0,0,0,.85.13c.08-.13.22-.11.13-.31.77.78,1.47-.41,2.16.23-.09,0-.2.12-.13.12l.58-.12c0-.23-.08-.14-.2-.32a.47.47,0,0,1,.38-.25c-.26.16,0,.38.12.5,0-.07,0-.14,0-.22.3.41,0-.46.46-.18l0,.12c.15-.07.3-.23.47-.19.06.27-.17.12-.18.34.23,0,.46-.5.68-.24-.1.08-.25.08-.35.15.23.32.26.24.43.29h0l.39.14-.1-.08c.3-.7.6-.13,1-.59-.39.44-.06.25-.09.56.1.08.25.17.21.26.18-.24.31.19.57-.16,0,.09.2,0,.16.25.25-.08-.06-.17,0-.29.38-.34.89.4,1.43-.06.46-.18.55-.51,1-.68.15.16-.12.36-.12.36a.57.57,0,0,0,.64,0c0,.09,0,.16.06.27s.12-.35.36-.21a1.36,1.36,0,0,1-.18.39c.21-.09.42-.27.63-.36.06.17-.13.26-.2.37.24-.08.63-.15.7-.42l-.15-.1c.09,0,0,.23,0,.28-.21.21-.3-.09-.32-.19l.16-.06c-.16-.57-.62.09-.93.06l.13-.42-.32.35c-.07-.11-.12-.34,0-.41-.23-.2-.2.15-.39-.08a0,0,0,0,1,0-.07l-.22.12c0-.08,0-.29.1-.23-.4-.24-.64.31-.78,0l0,0c-.54.14,0,.31-.46.66l-.27-.75-.06.31s-.16,0-.14-.16c-.21.21,0,.13-.09.33-.27-.28-.74.13-.8-.36-.1.24.26.18,0,.34-.08-.52-.34.09-.58-.15.07-.27.31-.12.06-.36-.15.45-.48-.1-.69,0,0,.37-.45.16-.8.28,0-.13-.65-.2-1-.33V.91c-.06.37-.39.3-.64.38A.45.45,0,0,1,74.6.88h-.23a.43.43,0,0,1-.27.22l.05-.28c-.3,0-.61.33-1,.14,0,.26.31.72-.11.89,0-.14,0-.38.08-.44s-.12.12-.2.06l.17-.23c-.18-.1-.09.19-.24.17,0-.2-.1-.14-.08-.3s.12.08.18,0a.64.64,0,0,1-.42-.31c0,.12,0,.27-.12.3-.31,0-.1-.24-.28-.34-.08.13-.27,0-.28.29-.09,0-.1-.14-.14-.22-.15.13-.73,0-.55.35l0,0h0c-.52.3-1.07-.16-1.59,0v-.1c-.3.12-.68.07-.9.28-.09,0-.21-.18-.17-.3-.23.08-.26.19-.6,0,.24-.18-.08-.16.24-.13-.3-.08-.37-.24-.7,0,.11-.26-.23-.32-.37-.25l.21.19a1.35,1.35,0,0,1-.45,0L66.92.6c-.62-.41-1.12.68-1.59,0-.17.23.33.16.19.43-.29,0-.59-.52-.68-.52-.39-.18-.36.49-.77.36a.4.4,0,0,1-.21.55c-.29-.05-.35-.5-.17-.6s.1,0,.1.07.21-.09.1-.22l0,.12c-.14-.12-.53-.11-.44-.31-.22.12-.09.2.07.26-.37-.17-.58,0-1-.12.06.07.12.2.06.2-.55-.14-.24.23-.62.28-.21-.18.08-.43-.3-.28-.23-.12,0-.31,0-.41-.34.23-.64-.15-.84-.19L61,.13a.54.54,0,0,1-.29.06l.11.23c-.11,0-.2,0-.2-.14-.11.16.09.4-.13.61C60.39.77,60.1,1,60.05.7c.44.11,0-.31.33-.36a.36.36,0,0,1-.27,0s0-.06,0-.08C59.72,0,60,.6,59.51.6c.06-.18-.1-.34-.17-.3.17,0,.08.29-.08.43C59,.59,59,.83,58.8.82L59,.88c-.06.18-.2.16-.4.21,0-.14.18-.09.11-.15-.22.31-.5-.33-.8-.12-.14-.12,0-.33-.14-.41C57.4.64,57.37.16,57,.35c.1.24.12.18-.14.42l.6-.17L57.09,1c.18,0,.37-.15.48-.11-.18.19-.16.13-.08.33-.24-.36-.48.21-.77,0V.55c-.42-.27-.75.3-1.31.15l.18.1c-.07.24-.34,0-.52.13,0-.2-.1-.27-.17-.39,0,.15-.41,0-.46.38L54.2.66c-.44-.11-.51.56-.94.5.13-.22-.06-.36.23-.51-.15,0-.28,0-.28.1-.08-.13-.4.26-.53.07-.06.09-.08.3-.24.28a.16.16,0,0,1,0-.1c0,.1-.25.14-.11.36-.44-.62-1.23,0-1.62-.49a7.17,7.17,0,0,1-1,.15c0-.06,0-.1,0-.08-.39-.19-.24.56-.69.36-.22-.32.24-.17.1-.29-.06-.65-.54.08-.84-.29l.07,0c-.23-.22-.56.24-.93.2a.16.16,0,0,0,0-.1,2,2,0,0,1-1.1.53c.11-.25.16-.13.09-.39-.16,0,0,.41-.27.49-.11-.14-.34-.26-.37-.54l.3,0c-.15-.35-.39,0-.55,0l0-.15c-.47,0-.47.44-1,.41l.06.12c-.28.39-.23-.22-.51.07L44.11.86a4.56,4.56,0,0,1-1,.45A2.84,2.84,0,0,1,44,.7c-.18,0-.61,0-.7.22.07,0,.16-.13.23-.07a1,1,0,0,1-.86.45c.06-.76-.93-.19-1.19-.78-.64.28-1.26-.12-2-.08.26.6-.22,0-.17.63-.17,0-.24,0-.26,0L38.5.69c-.13-.17.16-.13.14-.27-.37,0-.15-.26-.4-.42,0,.22-.13.31-.35.23l.3.28c-.52.33-.45-.51-1-.19l.17-.19c-.27.11-1,0-1.27.49,0-.07-.11-.24,0-.29-.65-.07-1.44.53-1.95.22l0-.15c-.12,0-.21.29-.36.13,0-.06,0-.14,0-.15s-.32.26-.48.17l.14-.17c-.64-.19-1,.41-1.5.52,0-.44-.5-.59-.75-.66V.18C30.53.12,30,.54,29.34.72,28.91.24,27.9.52,27.22.25c.11.08,0,.34-.14.39s-.44.3-.41-.1h0c-.12-.4-.44-.3-.7-.31l0,.53c-.67-.77-1.76.28-2.12-.4-.17.13-.37.13-.53.26V.35a3.47,3.47,0,0,0-1.22,0l.11-.2c-.31,0-.4.82-.68.84L21.46.51c-.55,0-1.1-.36-1.64,0,0-.06,0-.18.12-.2-.26,0-1-.29-.9.29,0-.37-.56,0-.86.13l.05-.27C18,.83,18,.93,17.62,1c-.08,0-.07-.23,0-.15-.27-.15-.21.26-.54.11l.12-.18c-.28,0-.26.08-.42.28S16.29,1,16.25.77c0,.16-.19.36-.36.29A.17.17,0,0,1,16,.88c-.47-.19-.7.32-1,.05a.26.26,0,0,0,0-.17,3.34,3.34,0,0,1,.65,0c0-.25-.31-.3-.07-.65-.24.19-.65.61-1,.49a.79.79,0,0,1,0-.09l0,0a.19.19,0,0,0-.18,0,.63.63,0,0,0-.25-.07c0-.22-.35-.12-.5-.13,0,.28-.18.24,0,.47,0,0,0,0,.13,0s.05,0,.07,0v0l.37,0c-.12.14-.24.26-.41.11-.08.18-.16.36-.21.45-.21-.39-.6-.6-.66-.85-.46.16-1.08.11-1.37.64-.13.06-.15-.15-.2-.24s.16,0,.2-.12c-.26.14-.77.05-.83.42-.33-.16.18-.34-.27-.28l.06-.11C9.55.19,9,1.72,8,1c.07,0,.1.06.12.13C7,.76,5.79,1.41,4.68.88c-.32-.11-.35.13-.54.31L4.07.89l-.33.34C3.27,1.49,2.93.49,2.33,1l.08.2c-.21,0-.67.12-.64-.12,0,0-.07.22-.15.11V1l-.52.27C.69,1.17,1.15.66.56.63c-.22.06-.62.46-.54.56a.27.27,0,0,1,.23.26l-.2.08C0,2-.14,2.47.35,2.8L.7,2.51l.11.23H.52c.16.22.27,0,.38-.1a.41.41,0,0,0,.15.25l.34-.45c0,.18-.16.36.07.46.16-.2-.15-.4.11-.54.17.21.12.38.31.2a.21.21,0,0,1-.09.25c.17-.14.46-.06.54-.31.18.27.58-.06.57.38a.86.86,0,0,1,.46-.37c-.29.53.59,0,.51.6.22-.47.77-.21,1.15-.47,0,0-.06.11-.09.09.21,0,.27.18.41.27,0-.39.36-.48.53-.73.27.38-.15.46-.07.83,0-.32.45-.32.36-.58.2.23.17.11.28.43,0-.49.18-.08.35-.38.29.24.07.46.39.31C7.33,3,7.05,3.21,7.05,3.21Zm7.54-.84h0l-.16,0Zm.63,0H15c0-.1,0-.2.06-.19S15.13,2.28,15.22,2.36ZM13.88.41c.1,0,.14,0,.15.08l-.17,0s0,0,0,0A.54.54,0,0,1,13.88.41Z"/><path class="cls-1" d="M13.7.78a.05.05,0,0,1,0,0l.06.07,0-.09Z"/><path class="cls-1" d="M71.16,1.2h0l0,0A0,0,0,0,1,71.16,1.2Z"/><polygon class="cls-1" points="23.98 2.9 23.97 2.83 23.92 2.89 23.98 2.9"/><path class="cls-1" d="M74.65,2.16s0,0,0,.08A.2.2,0,0,0,74.65,2.16Z"/><path class="cls-1" d="M76.15,2.23l.22.1A.66.66,0,0,0,76.15,2.23Z"/><path class="cls-1" d="M77.31,2.37a1,1,0,0,0,0-.12h0Z"/><path class="cls-1" d="M58.88,2.7h0C58.73,2.76,58.8,2.74,58.88,2.7Z"/><path class="cls-1" d="M64.37,2a1,1,0,0,1-.18.13C64.29,2.19,64.36,2.2,64.37,2Z"/><path class="cls-1" d="M52.75,3h0Z"/><path class="cls-1" d="M63.93,2.17a.27.27,0,0,0,.26,0A.39.39,0,0,0,63.93,2.17Z"/><path class="cls-1" d="M82.34,2.49l0,0a.43.43,0,0,1,0,0Z"/><path class="cls-1" d="M82.4,2.46l.06,0S82.41,2.43,82.4,2.46Z"/><path class="cls-1" d="M82.59,2.36l-.13.07C82.51,2.43,82.56,2.44,82.59,2.36Z"/><path class="cls-1" d="M80.8,2.36v.11A.31.31,0,0,0,80.8,2.36Z"/><path class="cls-1" d="M80.34,2.39c.11,0,.28.22.43.16l0-.08C80.71,2.62,80.44,2.22,80.34,2.39Z"/><path class="cls-1" d="M78.39,1.13l.39.09c-.07-.11-.16-.26,0-.29C78.31.61,78.9,1.18,78.39,1.13Z"/><path class="cls-1" d="M77.18,1c.21,0,0-.16,0-.22C77.05.86,77,.88,77.18,1Z"/><path class="cls-1" d="M68.42,1l0-.26C68.28.76,68.44.82,68.42,1Z"/><polygon class="cls-1" points="66.75 2.3 66.91 2.46 66.98 2.22 66.75 2.3"/><polygon class="cls-1" points="65.76 0.47 65.83 0.44 65.56 0.53 65.76 0.47"/><path class="cls-1" d="M51.05.57l.05.31C51.21.82,51.23.47,51.05.57Z"/><path class="cls-1" d="M44.7.89c-.07-.16-.25-.26-.36-.11C44.49.8,44.63.93,44.7.89Z"/><polygon class="cls-1" points="25.66 0.37 25.79 0.27 25.55 0.36 25.66 0.37"/></g></g></svg>