<svg xmlns="http://www.w3.org/2000/svg" viewBox="0 0 244.98 35.08"><defs><style>.cls-1{fill:#fff;}</style></defs><g id="Camada_2" data-name="Camada 2"><g id="Camada_1-2" data-name="Camada 1"><rect class="cls-1" x="42.67" y="-4.65" width="4.64" height="42.98" transform="translate(88.71 -3.07) rotate(135)"/><rect class="cls-1" x="15.57" y="-4.65" width="4.64" height="42.98" transform="translate(17.14 -7.72) rotate(45)"/><rect class="cls-1" x="23.74" y="-3.24" width="4.64" height="42.98" transform="translate(57.38 12.72) rotate(135)"/><rect class="cls-1" x="5.58" y="0.46" width="4.64" height="17.69" transform="translate(8.89 -2.86) rotate(45)"/><path class="cls-1" d="M87.57,30.25H82.72l-.06-17.66H73.53V9.13h23.2v3.46H87.57Z"/><path class="cls-1" d="M113.79,21.87h-4.1l-.06,8.38h-4.82V9.13h12.38c5,0,8.62,2.53,8.62,6.18,0,3.37-3.19,6-7,6.38l.36.12,6.36,8.08v.36h-4.85S115.81,24.1,113.79,21.87Zm3.58-9.22h-7.68V18.2l7.32.06c2.71,0,4.31-1.33,4.31-2.89S120.12,12.65,117.37,12.65Z"/><path class="cls-1" d="M150.25,25.52l-10.46,0-2.23,4.7h-4.64l10.4-21.18h4l10,21.18h-4.79Zm-5.19-11.3-3.73,7.9h7.41l-3.65-7.9Z"/><path class="cls-1" d="M180.83,21.87H169.77v8.38h-4.88V9.13h4.91v9h11v-9h4.91V30.25h-4.91Z"/><path class="cls-1" d="M195,9.13h18.66v3.46H199.87v5.52h11.82v3.34H199.87v5.31H214v3.49H195Z"/><path class="cls-1" d="M227.78,16.93V30.25H223V9.13h2.83l14.43,12.68V9.13H245V30.25h-2.13Z"/></g></g></svg>